<mxfile host="65bd71144e">
    <diagram id="ePSJveo-ZpGPxUjvDP5l" name="Page-1">
        <mxGraphModel dx="762" dy="412" grid="1" gridSize="10" guides="1" tooltips="1" connect="1" arrows="1" fold="1" page="1" pageScale="1" pageWidth="850" pageHeight="1100" math="0" shadow="0">
            <root>
                <mxCell id="0"/>
                <mxCell id="1" parent="0"/>
                <mxCell id="11" value="" style="group" vertex="1" connectable="0" parent="1">
                    <mxGeometry x="70" y="40" width="190" height="200" as="geometry"/>
                </mxCell>
                <mxCell id="2" value="" style="rounded=0;whiteSpace=wrap;html=1;container=0;" vertex="1" parent="11">
                    <mxGeometry x="10" width="180" height="200" as="geometry"/>
                </mxCell>
                <mxCell id="3" value="" style="rounded=0;whiteSpace=wrap;html=1;container=0;" vertex="1" parent="11">
                    <mxGeometry x="10" width="180" height="50" as="geometry"/>
                </mxCell>
                <mxCell id="4" value="" style="rounded=0;whiteSpace=wrap;html=1;container=0;" vertex="1" parent="11">
                    <mxGeometry x="10" y="150" width="180" height="50" as="geometry"/>
                </mxCell>
                <mxCell id="5" value="- client: string" style="text;html=1;strokeColor=none;fillColor=none;align=center;verticalAlign=middle;whiteSpace=wrap;rounded=0;container=0;" vertex="1" parent="11">
                    <mxGeometry x="10" y="60" width="80" height="30" as="geometry"/>
                </mxCell>
                <mxCell id="6" value="- table: int" style="text;html=1;strokeColor=none;fillColor=none;align=center;verticalAlign=middle;whiteSpace=wrap;rounded=0;container=0;" vertex="1" parent="11">
                    <mxGeometry x="10" y="80" width="60" height="30" as="geometry"/>
                </mxCell>
                <mxCell id="7" value="- desc: string" style="text;html=1;strokeColor=none;fillColor=none;align=center;verticalAlign=middle;whiteSpace=wrap;rounded=0;container=0;" vertex="1" parent="11">
                    <mxGeometry x="10" y="100" width="80" height="30" as="geometry"/>
                </mxCell>
                <mxCell id="8" value="- getPedidoID(): int" style="text;html=1;strokeColor=none;fillColor=none;align=center;verticalAlign=middle;whiteSpace=wrap;rounded=0;container=0;" vertex="1" parent="11">
                    <mxGeometry y="160" width="130" height="30" as="geometry"/>
                </mxCell>
                <mxCell id="9" value="Pedido" style="text;strokeColor=none;fillColor=none;html=1;fontSize=24;fontStyle=1;verticalAlign=middle;align=center;container=0;" vertex="1" parent="11">
                    <mxGeometry x="50" y="5" width="100" height="40" as="geometry"/>
                </mxCell>
                <mxCell id="25" value="" style="group" vertex="1" connectable="0" parent="1">
                    <mxGeometry x="259.9971428571429" y="40" width="417.1428571428572" height="200" as="geometry"/>
                </mxCell>
                <mxCell id="13" value="" style="rounded=0;whiteSpace=wrap;html=1;container=0;" vertex="1" parent="25">
                    <mxGeometry x="112.86285714285714" width="267.14" height="200" as="geometry"/>
                </mxCell>
                <mxCell id="14" value="" style="rounded=0;whiteSpace=wrap;html=1;container=0;" vertex="1" parent="25">
                    <mxGeometry x="112.86285714285714" width="267.14" height="50" as="geometry"/>
                </mxCell>
                <mxCell id="15" value="" style="rounded=0;whiteSpace=wrap;html=1;container=0;" vertex="1" parent="25">
                    <mxGeometry x="112.86285714285714" y="90" width="267.14" height="110" as="geometry"/>
                </mxCell>
                <mxCell id="16" value="- pedidos[]" style="text;html=1;strokeColor=none;fillColor=none;align=center;verticalAlign=middle;whiteSpace=wrap;rounded=0;container=0;" vertex="1" parent="25">
                    <mxGeometry x="112.85999999999996" y="60" width="102.85714285714286" height="30" as="geometry"/>
                </mxCell>
                <mxCell id="19" value="- addPedido(pedido): void" style="text;html=1;strokeColor=none;fillColor=none;align=center;verticalAlign=middle;whiteSpace=wrap;rounded=0;container=0;" vertex="1" parent="25">
                    <mxGeometry x="112.86285714285712" y="90" width="218.57142857142858" height="30" as="geometry"/>
                </mxCell>
                <mxCell id="20" value="PedidoList" style="text;strokeColor=none;fillColor=none;html=1;fontSize=24;fontStyle=1;verticalAlign=middle;align=center;container=0;" vertex="1" parent="25">
                    <mxGeometry x="182.14857142857142" y="5" width="128.57142857142858" height="40" as="geometry"/>
                </mxCell>
                <mxCell id="21" value="- getPedidoById(id): pedido" style="text;html=1;strokeColor=none;fillColor=none;align=center;verticalAlign=middle;whiteSpace=wrap;rounded=0;container=0;" vertex="1" parent="25">
                    <mxGeometry x="80.00285714285712" y="110" width="218.57142857142858" height="30" as="geometry"/>
                </mxCell>
                <mxCell id="22" value="-&amp;nbsp; ListarPedidos(): pedidos[]" style="text;html=1;strokeColor=none;fillColor=none;align=center;verticalAlign=middle;whiteSpace=wrap;rounded=0;container=0;" vertex="1" parent="25">
                    <mxGeometry x="80.00285714285712" y="130" width="218.57142857142858" height="30" as="geometry"/>
                </mxCell>
                <mxCell id="23" value="- updatePedidos(id, client, table, desc ): pedido" style="text;html=1;strokeColor=none;fillColor=none;align=center;verticalAlign=middle;whiteSpace=wrap;rounded=0;container=0;" vertex="1" parent="25">
                    <mxGeometry x="70" y="150" width="347.14285714285717" height="30" as="geometry"/>
                </mxCell>
                <mxCell id="24" value="- deletePedido(): void" style="text;html=1;strokeColor=none;fillColor=none;align=center;verticalAlign=middle;whiteSpace=wrap;rounded=0;container=0;" vertex="1" parent="25">
                    <mxGeometry y="170" width="347.14285714285717" height="30" as="geometry"/>
                </mxCell>
                <mxCell id="27" value="0..*&lt;span style=&quot;color: rgba(0, 0, 0, 0); font-family: monospace; font-size: 0px; text-align: start;&quot;&gt;%3CmxGraphModel%3E%3Croot%3E%3CmxCell%20id%3D%220%22%2F%3E%3CmxCell%20id%3D%221%22%20parent%3D%220%22%2F%3E%3CmxCell%20id%3D%222%22%20value%3D%22-%20updatePedidos(id%2C%20client%2C%20table%2C%20desc%20)%3A%20pedido%22%20style%3D%22text%3Bhtml%3D1%3BstrokeColor%3Dnone%3BfillColor%3Dnone%3Balign%3Dcenter%3BverticalAlign%3Dmiddle%3BwhiteSpace%3Dwrap%3Brounded%3D0%3Bcontainer%3D0%3B%22%20vertex%3D%221%22%20parent%3D%221%22%3E%3CmxGeometry%20x%3D%22329.9971428571429%22%20y%3D%22190%22%20width%3D%22347.14285714285717%22%20height%3D%2230%22%20as%3D%22geometry%22%2F%3E%3C%2FmxCell%3E%3C%2Froot%3E%3C%2FmxGraphModel%3E&lt;/span&gt;" style="text;html=1;strokeColor=none;fillColor=none;align=center;verticalAlign=middle;whiteSpace=wrap;rounded=0;" vertex="1" parent="25">
                    <mxGeometry x="-9.997142857142876" y="70" width="60" height="30" as="geometry"/>
                </mxCell>
                <mxCell id="28" value="1..*" style="text;html=1;strokeColor=none;fillColor=none;align=center;verticalAlign=middle;whiteSpace=wrap;rounded=0;" vertex="1" parent="25">
                    <mxGeometry x="50.002857142857124" y="70" width="60" height="30" as="geometry"/>
                </mxCell>
                <mxCell id="26" style="edgeStyle=none;html=1;endArrow=open;endFill=0;" edge="1" parent="1" source="19">
                    <mxGeometry relative="1" as="geometry">
                        <mxPoint x="260" y="145" as="targetPoint"/>
                    </mxGeometry>
                </mxCell>
            </root>
        </mxGraphModel>
    </diagram>
</mxfile>